<svg xmlns="http://www.w3.org/2000/svg" width="1200" height="630" viewBox="0 0 1200 630" role="img" aria-labelledby="title desc">
  <title id="title">Land of Dunamis Chapel Church Management System</title>
  <desc id="desc">Social sharing preview for Land of Dunamis Chapel.</desc>
  <defs>
    <linearGradient id="bg" x1="0" y1="0" x2="1" y2="1">
      <stop offset="0" stop-color="#020617"/>
      <stop offset="0.48" stop-color="#1e1b4b"/>
      <stop offset="1" stop-color="#0f766e"/>
    </linearGradient>
    <linearGradient id="gold" x1="0" y1="0" x2="1" y2="1">
      <stop offset="0" stop-color="#fde68a"/>
      <stop offset="1" stop-color="#f59e0b"/>
    </linearGradient>
    <filter id="shadow" x="-20%" y="-20%" width="140%" height="140%">
      <feDropShadow dx="0" dy="24" stdDeviation="24" flood-color="#020617" flood-opacity="0.35"/>
    </filter>
  </defs>
  <rect width="1200" height="630" fill="url(#bg)"/>
  <circle cx="1080" cy="80" r="230" fill="#ffffff" opacity="0.08"/>
  <circle cx="170" cy="540" r="280" fill="#14b8a6" opacity="0.12"/>
  <path d="M0 470 C230 390 385 555 608 468 C804 392 952 436 1200 342 L1200 630 L0 630 Z" fill="#ffffff" opacity="0.08"/>
  <g filter="url(#shadow)">
    <rect x="86" y="112" width="228" height="228" rx="52" fill="#ffffff" opacity="0.95"/>
    <rect x="111" y="137" width="178" height="178" rx="42" fill="#0f172a"/>
    <path d="M200 174v108M166 211h68" fill="none" stroke="url(#gold)" stroke-width="18" stroke-linecap="round"/>
    <path d="M151 286h98" fill="none" stroke="#14b8a6" stroke-width="18" stroke-linecap="round"/>
  </g>
  <g fill="#ffffff">
    <text x="360" y="205" font-family="Inter, Arial, sans-serif" font-size="64" font-weight="800">Land of Dunamis Chapel</text>
    <text x="362" y="270" font-family="Inter, Arial, sans-serif" font-size="32" font-weight="600" opacity="0.84">Church Management System</text>
    <text x="362" y="338" font-family="Inter, Arial, sans-serif" font-size="28" font-weight="500" opacity="0.78">Members • Attendance • Giving • Prayer Care • Events</text>
  </g>
  <g transform="translate(360 412)">
    <rect width="520" height="74" rx="22" fill="#ffffff" opacity="0.13"/>
    <circle cx="42" cy="37" r="18" fill="url(#gold)"/>
    <text x="78" y="46" font-family="Inter, Arial, sans-serif" font-size="24" font-weight="700" fill="#f8fafc">Secure church administration portal</text>
  </g>
</svg>
